<svg xmlns="http://www.w3.org/2000/svg" viewBox="0 0 247.15 228.33"><defs><style>.cls-1{fill:#231f20;}.cls-2{fill:#fff;}</style></defs><g id="Layer_3" data-name="Layer 3"><rect class="cls-1" x="11.54" y="5.77" width="222.88" height="211.15"/></g><g id="Layer_2" data-name="Layer 2"><path class="cls-2" d="M46.9,190.89h0a8,8,0,0,1,3.53-6.62l68.33-46a.91.91,0,0,0,.4-.75h0a.88.88,0,0,0-.4-.75l-68.33-46a8,8,0,0,1-3.53-6.62h0a8,8,0,0,1,12.45-6.61l73.88,49.92a8,8,0,0,1,3.51,6.61V141a8,8,0,0,1-3.51,6.62L59.35,197.5A8,8,0,0,1,46.9,190.89Z" transform="translate(-4.43 -13.84)"/><path class="cls-2" d="M137.81,180.85h58.5a8.55,8.55,0,0,1,8.56,8.55h0a8.55,8.55,0,0,1-8.56,8.55h-58.5a8.55,8.55,0,0,1-8.55-8.55h0A8.55,8.55,0,0,1,137.81,180.85Z" transform="translate(-4.43 -13.84)"/><path class="cls-2" d="M230.75,13.84H25.25A20.82,20.82,0,0,0,4.43,34.66V221.34a20.82,20.82,0,0,0,20.82,20.82h205.5a20.82,20.82,0,0,0,20.82-20.82V34.66A20.82,20.82,0,0,0,230.75,13.84Zm-9.62,11.43A8.09,8.09,0,1,1,213,33.36,8.09,8.09,0,0,1,221.13,25.27Zm-24.35,0a8.09,8.09,0,1,1-8.09,8.09A8.09,8.09,0,0,1,196.78,25.27Zm34.16,189.6a6.66,6.66,0,0,1-6.66,6.66H31.72a6.66,6.66,0,0,1-6.66-6.66V60.14a6.66,6.66,0,0,1,6.66-6.66H224.28a6.66,6.66,0,0,1,6.66,6.66Z" transform="translate(-4.43 -13.84)"/></g></svg>